<svg id="Layer_1" data-name="Layer 1" xmlns="http://www.w3.org/2000/svg" viewBox="0 0 508 150"><defs><style>.cls-1{fill:#ffe11a;}</style></defs><title>dodgelandscape</title><rect width="508" height="150"/><path class="cls-1" d="M179.58,61.42v25h2.58a3.29,3.29,0,0,1,2.18.58,2.13,2.13,0,0,1,0,3.08,3.18,3.18,0,0,1-2.18.6h-6.83V57.17h6.8a3.19,3.19,0,0,1,2.19.59,2.12,2.12,0,0,1,0,3.07,3.24,3.24,0,0,1-2.19.59Z"/><path class="cls-1" d="M193.48,79.76V63.12a2.94,2.94,0,0,1-2-.61,2,2,0,0,1-.64-1.53,2,2,0,0,1,.65-1.54,3.23,3.23,0,0,1,2.19-.59l8.9,0a11.16,11.16,0,0,1,4.06.76,9.31,9.31,0,0,1,3.18,2,13.29,13.29,0,0,1,1.9,2.44,13.92,13.92,0,0,1,1.49,3.1,12.32,12.32,0,0,1,.49,3.75v2a11.81,11.81,0,0,1-.91,4.78,9.76,9.76,0,0,1-2.39,3.4,11.94,11.94,0,0,1-2.8,1.94,12.66,12.66,0,0,1-5.37,1h-8.55a3.22,3.22,0,0,1-2.19-.6,2,2,0,0,1-.65-1.54,2,2,0,0,1,.65-1.54A2.81,2.81,0,0,1,193.48,79.76Zm4.26,0h4.52a8,8,0,0,0,3.82-.72,6.66,6.66,0,0,0,2.53-2.43,7.56,7.56,0,0,0,.85-3.82v-2A8.27,8.27,0,0,0,206,64a7.46,7.46,0,0,0-3.77-.88h-4.48Z"/><path class="cls-1" d="M239.55,75a9.24,9.24,0,0,1-1.36,4.74,9.56,9.56,0,0,1-4.05,3.65,12.23,12.23,0,0,1-11.17,0,9.65,9.65,0,0,1-4.05-3.64,9.23,9.23,0,0,1-1.39-4.81A10.23,10.23,0,0,1,223,66a11.56,11.56,0,0,1,11.12,0,9.82,9.82,0,0,1,4.06,3.88A10.11,10.11,0,0,1,239.55,75Zm-4.26,0a5.7,5.7,0,0,0-1.47-3.78,7.18,7.18,0,0,0-10.1-.47A5.72,5.72,0,0,0,221.79,75a5,5,0,0,0,2,3.72,7.49,7.49,0,0,0,9.6,0A5,5,0,0,0,235.29,75Z"/><path class="cls-1" d="M263.76,57.1V79.76h.73a3.29,3.29,0,0,1,2.18.59,2,2,0,0,1,.66,1.55,2,2,0,0,1-.65,1.52,3.22,3.22,0,0,1-2.19.6h-5V83a12.43,12.43,0,0,1-3,1.28,12,12,0,0,1-3.29.44,10.75,10.75,0,0,1-7.72-2.77,9.12,9.12,0,0,1-2.92-6.9,10,10,0,0,1,3.07-7.36,10.18,10.18,0,0,1,7.49-3,10.6,10.6,0,0,1,3.25.5,12.93,12.93,0,0,1,3.16,1.53V61.36h-.73a3.28,3.28,0,0,1-2.19-.59,2,2,0,0,1-.65-1.53,2,2,0,0,1,.65-1.54,3.22,3.22,0,0,1,2.19-.6Zm-4.25,18.06a6.06,6.06,0,0,0-1.85-4.47,6.5,6.5,0,0,0-9,0,6,6,0,0,0-1.85,4.4,4.94,4.94,0,0,0,1.66,3.85,8,8,0,0,0,9.38,0A4.85,4.85,0,0,0,259.51,75.16Z"/><path class="cls-1" d="M284.18,66.44V65.18h5a3.23,3.23,0,0,1,2.19.59,2.14,2.14,0,0,1,0,3.07,3.28,3.28,0,0,1-2.19.59h-.73V84.91a7.8,7.8,0,0,1-.94,3.91,8.54,8.54,0,0,1-7.29,4.08h-4.82a3.28,3.28,0,0,1-2.19-.59,2.15,2.15,0,0,1,0-3.08,3.28,3.28,0,0,1,2.19-.59h4.69a4.13,4.13,0,0,0,3-1.06,3.56,3.56,0,0,0,1.08-2.67V82.83a11.57,11.57,0,0,1-2.87,1.37A10.41,10.41,0,0,1,271,81.76a10.23,10.23,0,0,1,0-14.31,10,10,0,0,1,7.27-2.9,10.12,10.12,0,0,1,3.08.47A10,10,0,0,1,284.18,66.44Zm0,8.16a5.56,5.56,0,0,0-1.73-4.07,5.89,5.89,0,0,0-8.32,0,5.63,5.63,0,0,0,0,8.14,5.92,5.92,0,0,0,8.32,0A5.54,5.54,0,0,0,284.16,74.6Z"/><path class="cls-1" d="M315.68,76.75H298.23a5.47,5.47,0,0,0,2.35,2.68,8.86,8.86,0,0,0,4.58,1,26.43,26.43,0,0,0,6.29-1,10.38,10.38,0,0,1,2.24-.41,1.93,1.93,0,0,1,1.43.6,2.11,2.11,0,0,1,.58,1.51,1.85,1.85,0,0,1-.62,1.41A10.15,10.15,0,0,1,311,84a29.4,29.4,0,0,1-6.18.69,11.43,11.43,0,0,1-8.17-2.88,9.38,9.38,0,0,1-3.06-7.1,9.1,9.1,0,0,1,3.31-7.29,11.42,11.42,0,0,1,7.63-2.81,12.13,12.13,0,0,1,4.76.91,10,10,0,0,1,3.22,2A12.3,12.3,0,0,1,315,71.3a9.21,9.21,0,0,1,.67,3.65ZM311,72.5a6.63,6.63,0,0,0-2.55-2.73,8.26,8.26,0,0,0-7.5,0,6.8,6.8,0,0,0-2.57,2.73Z"/><path class="cls-1" d="M328.42,86.4v-25h-2.57a3.24,3.24,0,0,1-2.19-.59,2.12,2.12,0,0,1,0-3.07,3.19,3.19,0,0,1,2.19-.59h6.82V90.66h-6.8a3.19,3.19,0,0,1-2.19-.6,2.12,2.12,0,0,1,0-3.07,3.24,3.24,0,0,1,2.19-.59Z"/></svg>